<svg width="1046" height="286" viewBox="0 0 1046 286" fill="none" xmlns="http://www.w3.org/2000/svg">
<path fill-rule="evenodd" clip-rule="evenodd" d="M327.358 283.5L163.679 0L0 283.5H327.358ZM296.98 268.75L163.179 37L29.3779 268.75H296.98Z" fill="#C026D3"/>
<path d="M163 180L298.966 270H27.0342L163 180Z" fill="#C026D3"/>
<path d="M339.84 284L414.72 116H453.12L528.24 284H487.44L426 135.68H441.36L379.68 284H339.84ZM377.28 248L387.6 218.48H474L484.56 248H377.28Z" fill="white"/>
<path d="M533.681 284V261.44L610.001 171.2L616.481 183.68H535.361V154.88H646.721V177.44L570.401 267.68L563.681 255.2H648.881V284H533.681Z" fill="white"/>
<path d="M727.354 285.92C716.634 285.92 707.034 283.84 698.554 279.68C690.234 275.52 683.754 269.2 679.114 260.72C674.474 252.08 672.154 241.12 672.154 227.84V154.88H709.594V222.32C709.594 233.04 711.834 240.96 716.314 246.08C720.954 251.04 727.434 253.52 735.754 253.52C741.514 253.52 746.634 252.32 751.114 249.92C755.594 247.36 759.114 243.52 761.674 238.4C764.234 233.12 765.514 226.56 765.514 218.72V154.88H802.954V284H767.434V248.48L773.914 258.8C769.594 267.76 763.194 274.56 754.714 279.2C746.394 283.68 737.274 285.92 727.354 285.92Z" fill="white"/>
<path d="M837.639 284V154.88H873.399V191.36L868.359 180.8C872.199 171.68 878.359 164.8 886.839 160.16C895.319 155.36 905.639 152.96 917.799 152.96V187.52C916.199 187.36 914.759 187.28 913.479 187.28C912.199 187.12 910.839 187.04 909.399 187.04C899.159 187.04 890.839 190 884.439 195.92C878.199 201.68 875.079 210.72 875.079 223.04V284H837.639Z" fill="white"/>
<path d="M1010.82 284V258.8L1008.42 253.28V208.16C1008.42 200.16 1005.94 193.92 1000.98 189.44C996.184 184.96 988.744 182.72 978.664 182.72C971.784 182.72 964.984 183.84 958.264 186.08C951.704 188.16 946.104 191.04 941.464 194.72L928.024 168.56C935.064 163.6 943.544 159.76 953.464 157.04C963.384 154.32 973.464 152.96 983.704 152.96C1003.38 152.96 1018.66 157.6 1029.54 166.88C1040.42 176.16 1045.86 190.64 1045.86 210.32V284H1010.82ZM971.464 285.92C961.384 285.92 952.744 284.24 945.544 280.88C938.344 277.36 932.824 272.64 928.984 266.72C925.144 260.8 923.224 254.16 923.224 246.8C923.224 239.12 925.064 232.4 928.744 226.64C932.584 220.88 938.584 216.4 946.744 213.2C954.904 209.84 965.544 208.16 978.664 208.16H1012.98V230H982.744C973.944 230 967.864 231.44 964.504 234.32C961.304 237.2 959.704 240.8 959.704 245.12C959.704 249.92 961.544 253.76 965.224 256.64C969.064 259.36 974.264 260.72 980.824 260.72C987.064 260.72 992.664 259.28 997.624 256.4C1002.58 253.36 1006.18 248.96 1008.42 243.2L1014.18 260.48C1011.46 268.8 1006.5 275.12 999.304 279.44C992.104 283.76 982.824 285.92 971.464 285.92Z" fill="white"/>
</svg>
