<svg width="999" height="175" viewBox="0 0 999 175" fill="none" xmlns="http://www.w3.org/2000/svg">
<path d="M99.6185 6.11719C97.815 2.37891 94.0039 0 89.8185 0C85.6331 0 81.856 2.37891 80.0185 6.11719L58.1387 51.0785L9.27476 58.2832C5.19143 58.8949 1.78865 61.7496 0.529624 65.6578C-0.729404 69.566 0.291428 73.882 3.21782 76.7707L38.6748 111.809L30.3039 161.324C29.6234 165.402 31.3248 169.548 34.6935 171.961C38.0623 174.374 42.5199 174.68 46.1949 172.743L89.8525 149.463L133.51 172.743C137.185 174.68 141.643 174.408 145.012 171.961C148.38 169.514 150.082 165.402 149.401 161.324L140.996 111.809L176.453 76.7707C179.38 73.882 180.434 69.566 179.141 65.6578C177.848 61.7496 174.48 58.8949 170.396 58.2832L121.498 51.0785L99.6185 6.11719Z" fill="black"/>
<path d="M304.304 6.11719C302.501 2.37891 298.689 0 294.504 0C290.319 0 286.542 2.37891 284.704 6.11719L262.824 51.0785L213.96 58.2832C209.877 58.8949 206.474 61.7496 205.215 65.6578C203.956 69.566 204.977 73.882 207.903 76.7707L243.36 111.809L234.989 161.324C234.309 165.402 236.01 169.548 239.379 171.961C242.748 174.374 247.205 174.68 250.88 172.743L294.538 149.463L338.196 172.743C341.871 174.68 346.328 174.408 349.697 171.961C353.066 169.514 354.767 165.402 354.087 161.324L345.682 111.809L381.139 76.7707C384.065 73.882 385.12 69.566 383.827 65.6578C382.534 61.7496 379.165 58.8949 375.082 58.2832L326.184 51.0785L304.304 6.11719Z" fill="black"/>
<path d="M508.991 6.11719C507.187 2.37891 503.376 0 499.191 0C495.005 0 491.228 2.37891 489.391 6.11719L467.511 51.0785L418.647 58.2832C414.564 58.8949 411.161 61.7496 409.902 65.6578C408.643 69.566 409.663 73.882 412.59 76.7707L448.047 111.809L439.676 161.324C438.995 165.402 440.697 169.548 444.066 171.961C447.434 174.374 451.892 174.68 455.567 172.743L499.225 149.463L542.882 172.743C546.557 174.68 551.015 174.408 554.384 171.961C557.752 169.514 559.454 165.402 558.773 161.324L550.368 111.809L585.825 76.7707C588.752 73.882 589.807 69.566 588.513 65.6578C587.22 61.7496 583.852 58.8949 579.768 58.2832L530.87 51.0785L508.991 6.11719Z" fill="black"/>
<path d="M713.676 6.11719C711.873 2.37891 708.062 0 703.876 0C699.691 0 695.914 2.37891 694.076 6.11719L672.196 51.0785L623.332 58.2832C619.249 58.8949 615.846 61.7496 614.587 65.6578C613.328 69.566 614.349 73.882 617.275 76.7707L652.732 111.809L644.362 161.324C643.681 165.402 645.382 169.548 648.751 171.961C652.12 174.374 656.578 174.68 660.253 172.743L703.91 149.463L747.568 172.743C751.243 174.68 755.7 174.408 759.069 171.961C762.438 169.514 764.139 165.402 763.459 161.324L755.054 111.809L790.511 76.7707C793.437 73.882 794.492 69.566 793.199 65.6578C791.906 61.7496 788.537 58.8949 784.454 58.2832L735.556 51.0785L713.676 6.11719Z" fill="black"/>
<path d="M918.362 6.11719C916.558 2.37891 912.747 0 908.562 0C904.376 0 900.599 2.37891 898.762 6.11719L876.882 51.0785L828.018 58.2832C823.935 58.8949 820.532 61.7496 819.273 65.6578C818.014 69.566 819.035 73.882 821.961 76.7707L857.418 111.809L849.047 161.324C848.367 165.402 850.068 169.548 853.437 171.961C856.805 174.374 861.263 174.68 864.938 172.743L908.596 149.463L952.253 172.743C955.928 174.68 960.386 174.408 963.755 171.961C967.123 169.514 968.825 165.402 968.144 161.324L959.739 111.809L995.196 76.7707C998.123 73.882 999.178 69.566 997.885 65.6578C996.592 61.7496 993.223 58.8949 989.139 58.2832L940.242 51.0785L918.362 6.11719Z" fill="black"/>
</svg>
